<mxfile host="app.diagrams.net" modified="2020-12-09T06:17:02.661Z" agent="5.0 (Macintosh; Intel Mac OS X 11_0_1) AppleWebKit/537.36 (KHTML, like Gecko) Chrome/87.0.4280.88 Safari/537.36" etag="mK6j3MU1GT6ZFEjR9iaG" version="13.11.0" type="github" pages="2">
  <diagram id="CB4A-OiyVOFxX1hlrwkz" name="Page-1">
    <mxGraphModel dx="946" dy="515" grid="1" gridSize="10" guides="1" tooltips="1" connect="1" arrows="1" fold="1" page="1" pageScale="1" pageWidth="827" pageHeight="1169" math="0" shadow="0">
      <root>
        <mxCell id="0" />
        <mxCell id="1" parent="0" />
        <mxCell id="sOE_rd0oP15liOT2k4gS-1" value="生产者线程" style="shape=umlActor;verticalLabelPosition=bottom;verticalAlign=top;html=1;outlineConnect=0;" parent="1" vertex="1">
          <mxGeometry x="130" y="140" width="30" height="60" as="geometry" />
        </mxCell>
        <mxCell id="sOE_rd0oP15liOT2k4gS-2" value="缓冲区A" style="ellipse;shape=cloud;whiteSpace=wrap;html=1;" parent="1" vertex="1">
          <mxGeometry x="240" y="80" width="120" height="80" as="geometry" />
        </mxCell>
        <mxCell id="sOE_rd0oP15liOT2k4gS-3" value="消费者线程" style="shape=umlActor;verticalLabelPosition=bottom;verticalAlign=top;html=1;outlineConnect=0;" parent="1" vertex="1">
          <mxGeometry x="450" y="200" width="30" height="60" as="geometry" />
        </mxCell>
        <mxCell id="sOE_rd0oP15liOT2k4gS-4" value="缓冲区B" style="ellipse;shape=cloud;whiteSpace=wrap;html=1;" parent="1" vertex="1">
          <mxGeometry x="240" y="230" width="120" height="80" as="geometry" />
        </mxCell>
        <mxCell id="sOE_rd0oP15liOT2k4gS-6" value="" style="endArrow=classic;html=1;exitX=0;exitY=0.3333333333333333;exitDx=0;exitDy=0;exitPerimeter=0;entryX=0.875;entryY=0.5;entryDx=0;entryDy=0;entryPerimeter=0;" parent="1" source="sOE_rd0oP15liOT2k4gS-3" target="sOE_rd0oP15liOT2k4gS-4" edge="1">
          <mxGeometry width="50" height="50" relative="1" as="geometry">
            <mxPoint x="440" y="240" as="sourcePoint" />
            <mxPoint x="370" y="260" as="targetPoint" />
          </mxGeometry>
        </mxCell>
        <mxCell id="sOE_rd0oP15liOT2k4gS-7" value="" style="endArrow=classic;html=1;exitX=1;exitY=0.3333333333333333;exitDx=0;exitDy=0;exitPerimeter=0;entryX=0.16;entryY=0.55;entryDx=0;entryDy=0;entryPerimeter=0;" parent="1" source="sOE_rd0oP15liOT2k4gS-1" target="sOE_rd0oP15liOT2k4gS-2" edge="1">
          <mxGeometry width="50" height="50" relative="1" as="geometry">
            <mxPoint x="390" y="300" as="sourcePoint" />
            <mxPoint x="440" y="250" as="targetPoint" />
          </mxGeometry>
        </mxCell>
        <mxCell id="sOE_rd0oP15liOT2k4gS-9" value="" style="endArrow=classic;html=1;strokeWidth=1;shape=flexArrow;dashed=1;strokeColor=#333333;" parent="1" source="sOE_rd0oP15liOT2k4gS-4" edge="1">
          <mxGeometry width="50" height="50" relative="1" as="geometry">
            <mxPoint x="360" y="230" as="sourcePoint" />
            <mxPoint x="330" y="160" as="targetPoint" />
            <Array as="points">
              <mxPoint x="360" y="200" />
            </Array>
          </mxGeometry>
        </mxCell>
        <mxCell id="sOE_rd0oP15liOT2k4gS-11" value="" style="endArrow=classic;html=1;strokeWidth=1;shape=flexArrow;dashed=1;strokeColor=#333333;" parent="1" target="sOE_rd0oP15liOT2k4gS-4" edge="1">
          <mxGeometry width="50" height="50" relative="1" as="geometry">
            <mxPoint x="270" y="160" as="sourcePoint" />
            <mxPoint x="259.76833630141005" y="235.27027431502188" as="targetPoint" />
            <Array as="points">
              <mxPoint x="240" y="200" />
            </Array>
          </mxGeometry>
        </mxCell>
      </root>
    </mxGraphModel>
  </diagram>
  <diagram id="fMjPIpB9D84LXiZdQ1-M" name="Page-2">
    <mxGraphModel dx="946" dy="515" grid="1" gridSize="10" guides="1" tooltips="1" connect="1" arrows="1" fold="1" page="1" pageScale="1" pageWidth="827" pageHeight="1169" math="0" shadow="0">
      <root>
        <mxCell id="0f_eAD_F4JOo2ZaTfPkh-0" />
        <mxCell id="0f_eAD_F4JOo2ZaTfPkh-1" parent="0f_eAD_F4JOo2ZaTfPkh-0" />
        <mxCell id="0f_eAD_F4JOo2ZaTfPkh-2" value="开始" style="rounded=1;whiteSpace=wrap;html=1;" vertex="1" parent="0f_eAD_F4JOo2ZaTfPkh-1">
          <mxGeometry x="280" y="30" width="120" height="50" as="geometry" />
        </mxCell>
        <mxCell id="0f_eAD_F4JOo2ZaTfPkh-4" value="队列已满" style="rhombus;whiteSpace=wrap;html=1;" vertex="1" parent="0f_eAD_F4JOo2ZaTfPkh-1">
          <mxGeometry x="280" y="220" width="120" height="60" as="geometry" />
        </mxCell>
        <mxCell id="0f_eAD_F4JOo2ZaTfPkh-7" value="" style="endArrow=classic;html=1;strokeColor=#333333;strokeWidth=1;exitX=0.5;exitY=1;exitDx=0;exitDy=0;" edge="1" parent="0f_eAD_F4JOo2ZaTfPkh-1" source="0f_eAD_F4JOo2ZaTfPkh-2">
          <mxGeometry width="50" height="50" relative="1" as="geometry">
            <mxPoint x="390" y="290" as="sourcePoint" />
            <mxPoint x="340" y="140" as="targetPoint" />
          </mxGeometry>
        </mxCell>
        <mxCell id="0f_eAD_F4JOo2ZaTfPkh-8" value="" style="endArrow=classic;html=1;strokeColor=#333333;strokeWidth=1;exitX=0;exitY=0.5;exitDx=0;exitDy=0;entryX=0;entryY=0.25;entryDx=0;entryDy=0;" edge="1" parent="0f_eAD_F4JOo2ZaTfPkh-1" source="0f_eAD_F4JOo2ZaTfPkh-4" target="0f_eAD_F4JOo2ZaTfPkh-18">
          <mxGeometry width="50" height="50" relative="1" as="geometry">
            <mxPoint x="390" y="440" as="sourcePoint" />
            <mxPoint x="240" y="350" as="targetPoint" />
            <Array as="points">
              <mxPoint x="240" y="250" />
              <mxPoint x="240" y="138" />
            </Array>
          </mxGeometry>
        </mxCell>
        <mxCell id="0f_eAD_F4JOo2ZaTfPkh-9" value="" style="endArrow=classic;html=1;strokeColor=#333333;strokeWidth=1;exitX=0.5;exitY=1;exitDx=0;exitDy=0;entryX=0.5;entryY=0;entryDx=0;entryDy=0;" edge="1" parent="0f_eAD_F4JOo2ZaTfPkh-1" source="0f_eAD_F4JOo2ZaTfPkh-4" target="0f_eAD_F4JOo2ZaTfPkh-10">
          <mxGeometry width="50" height="50" relative="1" as="geometry">
            <mxPoint x="390" y="440" as="sourcePoint" />
            <mxPoint x="440" y="410" as="targetPoint" />
            <Array as="points" />
          </mxGeometry>
        </mxCell>
        <mxCell id="0f_eAD_F4JOo2ZaTfPkh-10" value="消费者线程&lt;br&gt;队列为空" style="rhombus;whiteSpace=wrap;html=1;" vertex="1" parent="0f_eAD_F4JOo2ZaTfPkh-1">
          <mxGeometry x="280" y="320" width="120" height="80" as="geometry" />
        </mxCell>
        <mxCell id="0f_eAD_F4JOo2ZaTfPkh-11" value="生产者线程" style="shape=umlActor;verticalLabelPosition=bottom;verticalAlign=top;html=1;outlineConnect=0;" vertex="1" parent="0f_eAD_F4JOo2ZaTfPkh-1">
          <mxGeometry x="120" y="25" width="30" height="60" as="geometry" />
        </mxCell>
        <mxCell id="0f_eAD_F4JOo2ZaTfPkh-12" value="等待" style="shape=parallelogram;perimeter=parallelogramPerimeter;whiteSpace=wrap;html=1;fixedSize=1;" vertex="1" parent="0f_eAD_F4JOo2ZaTfPkh-1">
          <mxGeometry x="280" y="440" width="120" height="60" as="geometry" />
        </mxCell>
        <mxCell id="0f_eAD_F4JOo2ZaTfPkh-13" value="跟消费者线程&lt;br&gt;交换队列" style="shape=parallelogram;perimeter=parallelogramPerimeter;whiteSpace=wrap;html=1;fixedSize=1;" vertex="1" parent="0f_eAD_F4JOo2ZaTfPkh-1">
          <mxGeometry x="443.5" y="330" width="120" height="60" as="geometry" />
        </mxCell>
        <mxCell id="0f_eAD_F4JOo2ZaTfPkh-14" value="" style="endArrow=classic;html=1;strokeColor=#333333;strokeWidth=1;exitX=0.5;exitY=1;exitDx=0;exitDy=0;entryX=0.5;entryY=0;entryDx=0;entryDy=0;" edge="1" parent="0f_eAD_F4JOo2ZaTfPkh-1" source="0f_eAD_F4JOo2ZaTfPkh-10" target="0f_eAD_F4JOo2ZaTfPkh-12">
          <mxGeometry width="50" height="50" relative="1" as="geometry">
            <mxPoint x="254" y="580" as="sourcePoint" />
            <mxPoint x="304" y="530" as="targetPoint" />
          </mxGeometry>
        </mxCell>
        <mxCell id="0f_eAD_F4JOo2ZaTfPkh-15" value="" style="endArrow=classic;html=1;strokeColor=#333333;strokeWidth=1;exitX=1;exitY=0.5;exitDx=0;exitDy=0;entryX=0;entryY=0.5;entryDx=0;entryDy=0;" edge="1" parent="0f_eAD_F4JOo2ZaTfPkh-1" source="0f_eAD_F4JOo2ZaTfPkh-10" target="0f_eAD_F4JOo2ZaTfPkh-13">
          <mxGeometry width="50" height="50" relative="1" as="geometry">
            <mxPoint x="254" y="580" as="sourcePoint" />
            <mxPoint x="304" y="530" as="targetPoint" />
            <Array as="points">
              <mxPoint x="430" y="360" />
            </Array>
          </mxGeometry>
        </mxCell>
        <mxCell id="0f_eAD_F4JOo2ZaTfPkh-16" value="" style="endArrow=classic;html=1;strokeColor=#333333;strokeWidth=1;exitX=0;exitY=0.5;exitDx=0;exitDy=0;entryX=0;entryY=0.5;entryDx=0;entryDy=0;" edge="1" parent="0f_eAD_F4JOo2ZaTfPkh-1" source="0f_eAD_F4JOo2ZaTfPkh-12" target="0f_eAD_F4JOo2ZaTfPkh-10">
          <mxGeometry width="50" height="50" relative="1" as="geometry">
            <mxPoint x="254" y="440" as="sourcePoint" />
            <mxPoint x="304" y="390" as="targetPoint" />
            <Array as="points">
              <mxPoint x="260" y="470" />
              <mxPoint x="260" y="360" />
            </Array>
          </mxGeometry>
        </mxCell>
        <mxCell id="0f_eAD_F4JOo2ZaTfPkh-17" value="" style="endArrow=classic;html=1;strokeColor=#333333;strokeWidth=1;exitX=1;exitY=0.5;exitDx=0;exitDy=0;" edge="1" parent="0f_eAD_F4JOo2ZaTfPkh-1" source="0f_eAD_F4JOo2ZaTfPkh-13">
          <mxGeometry width="50" height="50" relative="1" as="geometry">
            <mxPoint x="390" y="470" as="sourcePoint" />
            <mxPoint x="340" y="100" as="targetPoint" />
            <Array as="points">
              <mxPoint x="600" y="360" />
              <mxPoint x="600" y="100" />
            </Array>
          </mxGeometry>
        </mxCell>
        <mxCell id="0f_eAD_F4JOo2ZaTfPkh-18" value="生产数据&lt;br&gt;放入队列" style="shape=parallelogram;perimeter=parallelogramPerimeter;whiteSpace=wrap;html=1;fixedSize=1;" vertex="1" parent="0f_eAD_F4JOo2ZaTfPkh-1">
          <mxGeometry x="280" y="120" width="120" height="60" as="geometry" />
        </mxCell>
        <mxCell id="0f_eAD_F4JOo2ZaTfPkh-19" value="" style="endArrow=classic;html=1;strokeColor=#333333;strokeWidth=1;exitX=0.5;exitY=1;exitDx=0;exitDy=0;" edge="1" parent="0f_eAD_F4JOo2ZaTfPkh-1" source="0f_eAD_F4JOo2ZaTfPkh-18" target="0f_eAD_F4JOo2ZaTfPkh-4">
          <mxGeometry width="50" height="50" relative="1" as="geometry">
            <mxPoint x="390" y="350" as="sourcePoint" />
            <mxPoint x="440" y="300" as="targetPoint" />
          </mxGeometry>
        </mxCell>
        <mxCell id="0f_eAD_F4JOo2ZaTfPkh-20" value="YES" style="text;html=1;align=center;verticalAlign=middle;resizable=0;points=[];autosize=1;" vertex="1" parent="0f_eAD_F4JOo2ZaTfPkh-1">
          <mxGeometry x="340" y="290" width="40" height="20" as="geometry" />
        </mxCell>
        <mxCell id="0f_eAD_F4JOo2ZaTfPkh-21" value="NO" style="text;html=1;align=center;verticalAlign=middle;resizable=0;points=[];autosize=1;" vertex="1" parent="0f_eAD_F4JOo2ZaTfPkh-1">
          <mxGeometry x="250" y="230" width="30" height="20" as="geometry" />
        </mxCell>
        <mxCell id="0f_eAD_F4JOo2ZaTfPkh-22" value="YES" style="text;html=1;align=center;verticalAlign=middle;resizable=0;points=[];autosize=1;" vertex="1" parent="0f_eAD_F4JOo2ZaTfPkh-1">
          <mxGeometry x="340" y="410" width="40" height="20" as="geometry" />
        </mxCell>
        <mxCell id="0f_eAD_F4JOo2ZaTfPkh-23" value="NO" style="text;html=1;align=center;verticalAlign=middle;resizable=0;points=[];autosize=1;" vertex="1" parent="0f_eAD_F4JOo2ZaTfPkh-1">
          <mxGeometry x="414" y="340" width="30" height="20" as="geometry" />
        </mxCell>
        <mxCell id="0f_eAD_F4JOo2ZaTfPkh-25" value="" style="shape=flexArrow;endArrow=classic;html=1;strokeColor=#333333;strokeWidth=1;" edge="1" parent="0f_eAD_F4JOo2ZaTfPkh-1">
          <mxGeometry width="50" height="50" relative="1" as="geometry">
            <mxPoint x="170" y="54.5" as="sourcePoint" />
            <mxPoint x="250" y="54.5" as="targetPoint" />
            <Array as="points">
              <mxPoint x="220" y="54.5" />
            </Array>
          </mxGeometry>
        </mxCell>
      </root>
    </mxGraphModel>
  </diagram>
</mxfile>
